<svg width="12" height="12" viewBox="0 0 12 12" fill="none" xmlns="http://www.w3.org/2000/svg">
<path d="M7.73279 7.03705C7.3487 7.03705 7.03613 7.34952 7.03613 7.73361C7.03613 8.1178 7.3487 8.43036 7.73279 8.43036C8.11698 8.43036 8.42935 8.1178 8.42935 7.73361C8.42926 7.34952 8.11688 7.03705 7.73279 7.03705Z" fill="black"/>
<path d="M4.26023 3.56525C3.87604 3.56525 3.56348 3.87781 3.56348 4.262C3.56357 4.646 3.87613 4.95847 4.26023 4.95847C4.64432 4.95847 4.9567 4.646 4.9567 4.262C4.9567 3.87781 4.64432 3.56525 4.26023 3.56525Z" fill="black"/>
<path d="M6 0C2.69147 0 0 2.69147 0 6C0 9.30834 2.69147 12 6 12C9.30816 12 11.9994 9.30834 11.9994 6C11.9994 2.69147 9.30816 0 6 0ZM4.25991 2.81466C5.05772 2.81466 5.70703 3.46378 5.70703 4.26197C5.70703 5.05978 5.05772 5.70909 4.25991 5.70909C3.46181 5.70909 2.81259 5.05978 2.81259 4.26197C2.81259 3.46378 3.46191 2.81466 4.25991 2.81466ZM3.81994 8.7105C3.74681 8.78381 3.65053 8.82056 3.55462 8.82056C3.45862 8.82056 3.36253 8.78381 3.28922 8.7105C3.14269 8.56397 3.14269 8.32622 3.28922 8.17987L8.1795 3.28941C8.32594 3.14288 8.56359 3.14288 8.71022 3.28941C8.85675 3.43594 8.85675 3.67369 8.71022 3.82013L3.81994 8.7105ZM7.73184 9.18075C6.93384 9.18075 6.28453 8.53153 6.28453 7.73344C6.28453 6.93562 6.93384 6.28631 7.73184 6.28631C8.52975 6.28631 9.17897 6.93562 9.17897 7.73344C9.17887 8.53153 8.52966 9.18075 7.73184 9.18075Z" fill="black"/>
</svg>
