<svg width="17" height="15" viewBox="0 0 17 15" fill="none" xmlns="http://www.w3.org/2000/svg">
<path d="M16.9816 0.029792H14.5736C12.6098 0.0333804 13.6154 0.0333723 12.6098 0.0333723C11.603 0.0333723 12.9059 0.0333723 12.0176 0.0333723L10.932 0.029792H6.07274H4.31855C4.31855 0.321871 4.31855 1.01994 4.31855 0.029792C3.31353 0.029792 3.4302 1.02052 3.4302 0.029792H2.42992L0 0V15H1.21526H15.7865L17 14.9965L16.9816 0.029792ZM15.7853 13.8054H1.21526V4.22288H15.7865V13.8054H15.7853Z" fill="black"/>
<path d="M7.98979 5.50854H6.07629V7.17456H7.98979V5.50854Z" fill="black"/>
<path d="M11.0852 5.50854H9.16992V7.17456H11.0852V5.50854Z" fill="black"/>
<path d="M13.9532 5.50854H12.0397V7.17456H13.9532V5.50854Z" fill="black"/>
<path d="M7.98979 8.27515H6.07629V9.94H7.98979V8.27515Z" fill="black"/>
<path d="M11.0852 8.27515H9.16992V9.94H11.0852V8.27515Z" fill="black"/>
<path d="M13.9532 8.27515H12.0397V9.94H13.9532V8.27515Z" fill="black"/>
<path d="M7.98979 11.0967H6.07629V12.7615H7.98979V11.0967Z" fill="black"/>
<path d="M4.9493 8.27515H3.03699V9.94H4.9493V8.27515Z" fill="black"/>
<path d="M4.9493 11.0967H3.03699V12.7615H4.9493V11.0967Z" fill="black"/>
<path d="M11.0852 11.0967H9.16992V12.7615H11.0852V11.0967Z" fill="black"/>
<path d="M13.9532 11.0967H12.0397V12.7615H13.9532V11.0967Z" fill="black"/>
</svg>
