<svg width="16" height="16" viewBox="0 0 16 16" fill="none" xmlns="http://www.w3.org/2000/svg">
<g clip-path="url(#clip0)">
<path d="M13.9658 9.36784C13.7825 6.98162 12.6715 5.48628 11.6914 4.16672C10.7838 2.94509 10 1.89015 10 0.333965C10 0.208965 9.93 0.0947153 9.819 0.0374341C9.70766 -0.0201909 9.57387 -0.0107535 9.47266 0.0628091C8.00066 1.11612 6.77247 2.8914 6.34344 4.58528C6.04559 5.76456 6.00619 7.09031 6.00066 7.9659C4.64128 7.67556 4.33334 5.64218 4.33009 5.62003C4.31478 5.51456 4.25034 5.42278 4.15659 5.37265C4.06188 5.32318 3.95053 5.31959 3.8545 5.36712C3.78322 5.40162 2.10481 6.25443 2.00716 9.65947C2.00031 9.77275 2 9.88637 2 9.99997C2 13.308 4.69172 15.9996 8 15.9996C8.00456 15.9999 8.00944 16.0005 8.01334 15.9996C8.01466 15.9996 8.01594 15.9996 8.01756 15.9996C11.3177 15.9901 14 13.3022 14 9.99997C14 9.83362 13.9658 9.36784 13.9658 9.36784ZM8 15.3329C6.89713 15.3329 6 14.3773 6 13.2026C6 13.1625 5.99969 13.1222 6.00259 13.0727C6.01594 12.5773 6.11003 12.2391 6.21322 12.0142C6.40659 12.4295 6.75228 12.8113 7.31381 12.8113C7.49806 12.8113 7.64716 12.6622 7.64716 12.478C7.64716 12.0034 7.65694 11.4559 7.77509 10.9618C7.88025 10.5237 8.13153 10.0576 8.44991 9.6839C8.5915 10.1689 8.86756 10.5614 9.13709 10.9446C9.52284 11.4927 9.92159 12.0594 9.99159 13.0258C9.99581 13.0831 10.0001 13.1407 10.0001 13.2026C10 14.3772 9.10287 15.3329 8 15.3329Z" fill="black"/>
</g>
<defs>
<clipPath id="clip0">
<rect width="16" height="16" fill="white"/>
</clipPath>
</defs>
</svg>
