<svg width="20" height="20" viewBox="0 0 20 20" fill="none" xmlns="http://www.w3.org/2000/svg">
<path d="M19.1667 18.3333H8.33333C7.87333 18.3333 7.5 17.96 7.5 17.5C7.5 17.04 7.87333 16.6666 8.33333 16.6666H19.1667C19.6267 16.6666 20 17.04 20 17.5C20 17.96 19.6267 18.3333 19.1667 18.3333Z" fill="white"/>
<path d="M16.8902 3.45496L15.7118 2.27663C15.0818 1.64663 13.9843 1.64746 13.3552 2.27663L11.6318 3.99996L15.1668 7.53496L16.8902 5.81163C17.2052 5.49746 17.3785 5.07913 17.3785 4.6333C17.3785 4.1883 17.2052 3.76996 16.8902 3.45496V3.45496Z" fill="white"/>
<path d="M10.4527 5.1792L1.86432 13.7675C1.80932 13.8217 1.77099 13.8909 1.75349 13.9667L0.845157 17.8209C0.811824 17.9609 0.854324 18.1092 0.95599 18.2109C1.03432 18.29 1.14099 18.3334 1.25016 18.3334C1.28182 18.3334 1.31432 18.33 1.34599 18.3225L5.20016 17.4142C5.27516 17.3967 5.34432 17.3584 5.39932 17.3034L13.9877 8.71503L10.4527 5.1792Z" fill="white"/>
</svg>
