<svg width="20" height="20" viewBox="0 0 20 20" fill="none" xmlns="http://www.w3.org/2000/svg">
<path d="M1.79688 11.1328V11.1478C1.08969 11.6831 0.625 12.5623 0.625 13.5156C0.625 15.131 1.93934 16.4844 3.55469 16.4844H4.72656C5.05043 16.4844 5.3125 16.2223 5.3125 15.8984V11.1328C5.3125 10.8089 5.05043 10.5469 4.72656 10.5469H3.55469C3.35406 10.5469 3.15816 10.5675 2.96875 10.6062V10.5469C2.96875 6.66961 6.12273 3.51562 10 3.51562C13.8773 3.51562 17.0312 6.66961 17.0312 10.5469V10.6062C16.8418 10.5675 16.6459 10.5469 16.4453 10.5469H15.2734C14.9496 10.5469 14.6875 10.8089 14.6875 11.1328V15.8984C14.6875 16.2223 14.9496 16.4844 15.2734 16.4844H15.8594V17.0703C15.8594 17.3936 15.5967 17.6562 15.2734 17.6562H12.2358C11.9931 16.9757 11.3488 16.4844 10.5859 16.4844C9.61664 16.4844 8.82812 17.2729 8.82812 18.2422C8.82812 19.2115 9.61664 20 10.5859 20C11.3488 20 11.9931 19.5087 12.2358 18.8281H15.2734C16.2427 18.8281 17.0312 18.0396 17.0312 17.0703V16.4251C18.3668 16.1529 19.375 14.9303 19.375 13.5156C19.375 12.5623 18.9103 11.6831 18.2031 11.1478V8.20312C18.2031 3.67984 14.5233 0 10 0C5.47672 0 1.79688 3.67984 1.79688 8.20312V11.1328Z" fill="#696969"/>
</svg>
