<svg width="30" height="30" viewBox="0 0 30 30" fill="none" xmlns="http://www.w3.org/2000/svg">
<g clip-path="url(#clip0)">
<path d="M24.0875 8.93031L25.8838 7.13406L24.1163 5.36594L22.1947 7.2875C20.4393 6.04349 18.3908 5.27679 16.25 5.0625V2.5H18.75V0H11.25V2.5H13.75V5.0625C11.6092 5.27679 9.56073 6.04349 7.80532 7.2875L5.88376 5.36594L4.11626 7.13406L5.91251 8.93031C4.23582 10.7056 3.11581 12.933 2.6908 15.3377C2.26579 17.7423 2.55439 20.2187 3.52096 22.4612C4.48753 24.7036 6.08974 26.6138 8.12972 27.9559C10.1697 29.2981 12.5581 30.0133 15 30.0133C17.4419 30.0133 19.8303 29.2981 21.8703 27.9559C23.9103 26.6138 25.5125 24.7036 26.4791 22.4612C27.4456 20.2187 27.7342 17.7423 27.3092 15.3377C26.8842 12.933 25.7642 10.7056 24.0875 8.93031ZM15 27.5C13.0222 27.5 11.0888 26.9135 9.4443 25.8147C7.79981 24.7159 6.51809 23.1541 5.76121 21.3268C5.00434 19.4996 4.8063 17.4889 5.19215 15.5491C5.57801 13.6093 6.53041 11.8275 7.92894 10.4289C9.32746 9.03041 11.1093 8.078 13.0491 7.69215C14.9889 7.3063 16.9996 7.50433 18.8268 8.26121C20.6541 9.01808 22.2159 10.2998 23.3147 11.9443C24.4135 13.5888 25 15.5222 25 17.5C24.997 20.1513 23.9425 22.6931 22.0678 24.5678C20.1931 26.4425 17.6513 27.497 15 27.5Z" fill="black"/>
<path d="M15 10V17.5H7.5C7.5 18.9834 7.93987 20.4334 8.76398 21.6668C9.58809 22.9001 10.7594 23.8614 12.1299 24.4291C13.5003 24.9968 15.0083 25.1453 16.4632 24.8559C17.918 24.5665 19.2544 23.8522 20.3033 22.8033C21.3522 21.7544 22.0665 20.418 22.3559 18.9632C22.6453 17.5083 22.4968 16.0003 21.9291 14.6299C21.3614 13.2594 20.4001 12.0881 19.1668 11.264C17.9334 10.4399 16.4834 10 15 10Z" fill="black"/>
</g>
<defs>
<clipPath id="clip0">
<rect width="30" height="30" fill="white"/>
</clipPath>
</defs>
</svg>
