<svg width="18" height="18" viewBox="0 0 18 18" fill="none" xmlns="http://www.w3.org/2000/svg">
<g clip-path="url(#clip0)">
<path d="M15.75 2.25H15V0.749954C15 0.336044 14.664 0 14.25 0H13.5C13.086 0 12.75 0.336044 12.75 0.749954V2.25H5.24995V0.749954C5.24995 0.336044 4.91405 0 4.5 0H3.75005C3.336 0 2.99995 0.336044 2.99995 0.749954V2.25H2.25C1.00951 2.25 0 3.25951 0 4.5V15.75C0 16.9905 1.00951 18 2.25 18H15.75C16.9905 18 18 16.9905 18 15.75V4.5C18 3.25951 16.9905 2.25 15.75 2.25ZM16.5 15.75C16.5 16.1632 16.1632 16.5 15.75 16.5H2.25C1.83678 16.5 1.50005 16.1632 1.50005 15.75V7.53003H16.5V15.75Z" fill="black"/>
</g>
<defs>
<clipPath id="clip0">
<rect width="18" height="18" fill="white"/>
</clipPath>
</defs>
</svg>
