<svg width="335" height="187" viewBox="0 0 335 187" fill="none" xmlns="http://www.w3.org/2000/svg">
<ellipse cx="129.865" cy="98.2812" rx="21.7326" ry="21.7812" fill="black"/>
<path d="M168.06 21.7812C168.06 33.5356 158.553 43.0625 146.827 43.0625C135.102 43.0625 125.595 33.5356 125.595 21.7812C125.595 10.0269 135.102 0.5 146.827 0.5C158.553 0.5 168.06 10.0269 168.06 21.7812Z" stroke="black"/>
<path d="M227.427 72.7812C227.427 84.5356 217.92 94.0625 206.195 94.0625C194.469 94.0625 184.962 84.5356 184.962 72.7812C184.962 61.0269 194.469 51.5 206.195 51.5C217.92 51.5 227.427 61.0269 227.427 72.7812Z" stroke="black"/>
<path d="M209.405 145.562C209.405 158.197 199.186 168.438 186.583 168.438C173.979 168.438 163.76 158.197 163.76 145.562C163.76 132.928 173.979 122.688 186.583 122.688C199.186 122.688 209.405 132.928 209.405 145.562Z" stroke="black"/>
<path d="M276.193 55.25C276.193 63.777 269.297 70.6875 260.792 70.6875C252.286 70.6875 245.39 63.777 245.39 55.25C245.39 46.723 252.286 39.8125 260.792 39.8125C269.297 39.8125 276.193 46.723 276.193 55.25Z" stroke="black"/>
<path d="M235.908 35.5938C235.908 42.0669 230.673 47.3125 224.217 47.3125C217.761 47.3125 212.525 42.0669 212.525 35.5938C212.525 29.1206 217.761 23.875 224.217 23.875C230.673 23.875 235.908 29.1206 235.908 35.5938Z" stroke="black"/>
<path d="M197.743 32.4062C197.743 35.3586 195.356 37.75 192.413 37.75C189.47 37.75 187.082 35.3586 187.082 32.4062C187.082 29.4539 189.47 27.0625 192.413 27.0625C195.356 27.0625 197.743 29.4539 197.743 32.4062Z" stroke="black"/>
<path d="M101.272 85.5312C101.272 88.4836 98.8841 90.875 95.941 90.875C92.998 90.875 90.6104 88.4836 90.6104 85.5312C90.6104 82.5789 92.998 80.1875 95.941 80.1875C98.8841 80.1875 101.272 82.5789 101.272 85.5312Z" stroke="black"/>
<path d="M207.285 16.4688C207.285 17.6607 206.321 18.625 205.135 18.625C203.948 18.625 202.984 17.6607 202.984 16.4688C202.984 15.2768 203.948 14.3125 205.135 14.3125C206.321 14.3125 207.285 15.2768 207.285 16.4688Z" stroke="black"/>
<path d="M243.329 83.4062C243.329 84.5982 242.365 85.5625 241.179 85.5625C239.992 85.5625 239.028 84.5982 239.028 83.4062C239.028 82.2143 239.992 81.25 241.179 81.25C242.365 81.25 243.329 82.2143 243.329 83.4062Z" stroke="black"/>
<path d="M119.295 37.7188C119.295 38.9107 118.331 39.875 117.144 39.875C115.958 39.875 114.994 38.9107 114.994 37.7188C114.994 36.5268 115.958 35.5625 117.144 35.5625C118.331 35.5625 119.295 36.5268 119.295 37.7188Z" stroke="black"/>
<path d="M117.174 65.3438C117.174 66.5357 116.21 67.5 115.023 67.5C113.837 67.5 112.873 66.5357 112.873 65.3438C112.873 64.1519 113.837 63.1875 115.023 63.1875C116.21 63.1875 117.174 64.1519 117.174 65.3438Z" stroke="black"/>
<path d="M161.699 98.2812C161.699 99.4732 160.735 100.438 159.549 100.438C158.362 100.438 157.398 99.4732 157.398 98.2812C157.398 97.0893 158.362 96.125 159.549 96.125C160.735 96.125 161.699 97.0893 161.699 98.2812Z" stroke="black"/>
<path d="M152.158 136.531C152.158 137.723 151.194 138.688 150.008 138.688C148.821 138.688 147.857 137.723 147.857 136.531C147.857 135.339 148.821 134.375 150.008 134.375C151.194 134.375 152.158 135.339 152.158 136.531Z" stroke="black"/>
<path d="M122.474 129.094C122.474 130.286 121.511 131.25 120.324 131.25C119.138 131.25 118.174 130.286 118.174 129.094C118.174 127.902 119.138 126.938 120.324 126.938C121.511 126.938 122.474 127.902 122.474 129.094Z" stroke="black"/>
<path d="M117.174 147.156C117.174 148.348 116.21 149.312 115.023 149.312C113.837 149.312 112.873 148.348 112.873 147.156C112.873 145.964 113.837 145 115.023 145C116.21 145 117.174 145.964 117.174 147.156Z" stroke="black"/>
<path d="M181.842 104.656C181.842 105.848 180.878 106.812 179.691 106.812C178.505 106.812 177.541 105.848 177.541 104.656C177.541 103.464 178.505 102.5 179.691 102.5C180.878 102.5 181.842 103.464 181.842 104.656Z" stroke="black"/>
<path d="M222.127 138.656C222.127 139.848 221.163 140.812 219.976 140.812C218.79 140.812 217.826 139.848 217.826 138.656C217.826 137.464 218.79 136.5 219.976 136.5C221.163 136.5 222.127 137.464 222.127 138.656Z" stroke="black"/>
<path d="M260.291 145.031C260.291 146.223 259.327 147.188 258.141 147.188C256.954 147.188 255.99 146.223 255.99 145.031C255.99 143.839 256.954 142.875 258.141 142.875C259.327 142.875 260.291 143.839 260.291 145.031Z" stroke="black"/>
<path d="M178.662 55.7812C178.662 59.9072 175.325 63.25 171.211 63.25C167.097 63.25 163.76 59.9072 163.76 55.7812C163.76 51.6553 167.097 48.3125 171.211 48.3125C175.325 48.3125 178.662 51.6553 178.662 55.7812Z" stroke="black"/>
<path d="M244.389 114.75C244.389 120.343 239.866 124.875 234.288 124.875C228.71 124.875 224.187 120.343 224.187 114.75C224.187 109.157 228.71 104.625 234.288 104.625C239.866 104.625 244.389 109.157 244.389 114.75Z" stroke="black"/>
<path d="M142.617 145.031C142.617 149.744 138.805 153.562 134.106 153.562C129.406 153.562 125.595 149.744 125.595 145.031C125.595 140.319 129.406 136.5 134.106 136.5C138.805 136.5 142.617 140.319 142.617 145.031Z" stroke="black"/>
<path d="M103.392 130.156C103.392 134.869 99.5807 138.688 94.8812 138.688C90.1817 138.688 86.3701 134.869 86.3701 130.156C86.3701 125.444 90.1817 121.625 94.8812 121.625C99.5807 121.625 103.392 125.444 103.392 130.156Z" stroke="black"/>
<path d="M271.952 99.875C271.952 104.294 268.378 107.875 263.971 107.875C259.565 107.875 255.99 104.294 255.99 99.875C255.99 95.4557 259.565 91.875 263.971 91.875C268.378 91.875 271.952 95.4557 271.952 99.875Z" stroke="black"/>
<path d="M209.405 109.969C209.405 114.095 206.068 117.438 201.954 117.438C197.84 117.438 194.503 114.095 194.503 109.969C194.503 105.843 197.84 102.5 201.954 102.5C206.068 102.5 209.405 105.843 209.405 109.969Z" stroke="black"/>
<path d="M178.661 180.094C178.661 183.046 176.274 185.438 173.331 185.438C170.388 185.438 168 183.046 168 180.094C168 177.141 170.388 174.75 173.331 174.75C176.274 174.75 178.661 177.141 178.661 180.094Z" stroke="black"/>
<path d="M231.668 157.781C231.668 161.907 228.331 165.25 224.217 165.25C220.103 165.25 216.766 161.907 216.766 157.781C216.766 153.655 220.103 150.312 224.217 150.312C228.331 150.312 231.668 153.655 231.668 157.781Z" stroke="black"/>
<path d="M177.601 83.4062C177.601 87.5322 174.264 90.875 170.15 90.875C166.036 90.875 162.699 87.5322 162.699 83.4062C162.699 79.2803 166.036 75.9375 170.15 75.9375C174.264 75.9375 177.601 79.2803 177.601 83.4062Z" stroke="black"/>
<ellipse cx="138.347" cy="61.0938" rx="9.01108" ry="9.03125" fill="black"/>
<ellipse cx="160.609" cy="119.531" rx="9.01108" ry="9.03125" fill="black"/>
<ellipse cx="153.718" cy="75.4375" rx="3.18038" ry="3.1875" fill="black"/>
<line x1="42.4053" y1="104.688" x2="96.4717" y2="104.688" stroke="black"/>
<path d="M0.49 101.125C0.49 100.537 0.555333 100.028 0.686 99.599C0.816667 99.1697 1.036 98.787 1.344 98.451C1.66133 98.115 2.09533 97.7977 2.646 97.499C3.234 97.1817 3.69133 96.9343 4.018 96.757C4.354 96.5703 4.58733 96.4117 4.718 96.281C4.858 96.141 4.928 95.9823 4.928 95.805C4.928 95.5437 4.83467 95.3337 4.648 95.175C4.46133 95.0163 4.19533 94.937 3.85 94.937C3.46733 94.937 3.12667 95.035 2.828 95.231C2.52933 95.4177 2.24467 95.665 1.974 95.973L0.56 94.321C0.765333 94.1063 1.05 93.8963 1.414 93.691C1.78733 93.4857 2.212 93.3177 2.688 93.187C3.17333 93.0563 3.69133 92.991 4.242 92.991C5.24067 92.991 6.01067 93.215 6.552 93.663C7.09333 94.1017 7.364 94.6897 7.364 95.427C7.364 95.847 7.28 96.2063 7.112 96.505C6.95333 96.7943 6.74333 97.0417 6.482 97.247C6.23 97.4523 5.96867 97.639 5.698 97.807C5.25 98.0403 4.858 98.255 4.522 98.451C4.19533 98.6377 3.90133 98.857 3.64 99.109H7.518V101.125H0.49ZM15.7931 97.023C15.7931 97.8443 15.6344 98.577 15.3171 99.221C14.9998 99.8557 14.5658 100.355 14.0151 100.719C13.4644 101.083 12.8391 101.265 12.1391 101.265C11.4391 101.265 10.8138 101.083 10.2631 100.719C9.71243 100.355 9.27843 99.8557 8.96109 99.221C8.64376 98.577 8.48509 97.8443 8.48509 97.023C8.48509 96.2017 8.64376 95.4737 8.96109 94.839C9.27843 94.195 9.71243 93.691 10.2631 93.327C10.8138 92.9537 11.4391 92.767 12.1391 92.767C12.8391 92.767 13.4644 92.9537 14.0151 93.327C14.5658 93.691 14.9998 94.195 15.3171 94.839C15.6344 95.4737 15.7931 96.2017 15.7931 97.023ZM13.5391 97.023C13.5391 96.3697 13.4038 95.8423 13.1331 95.441C12.8718 95.0303 12.5404 94.825 12.1391 94.825C11.7191 94.825 11.3784 95.0303 11.1171 95.441C10.8558 95.8423 10.7251 96.3697 10.7251 97.023C10.7251 97.6763 10.8558 98.2037 11.1171 98.605C11.3784 99.0063 11.7191 99.207 12.1391 99.207C12.5404 99.207 12.8718 99.0063 13.1331 98.605C13.4038 98.2037 13.5391 97.6763 13.5391 97.023ZM19.0307 95.371C18.5827 95.371 18.1767 95.2777 17.8127 95.091C17.458 94.895 17.1734 94.6337 16.9587 94.307C16.744 93.971 16.6367 93.6023 16.6367 93.201C16.6367 92.7997 16.744 92.4357 16.9587 92.109C17.1734 91.7823 17.458 91.5257 17.8127 91.339C18.1767 91.143 18.5827 91.045 19.0307 91.045C19.4787 91.045 19.8847 91.143 20.2487 91.339C20.6127 91.5257 20.8974 91.7823 21.1027 92.109C21.3174 92.4357 21.4247 92.7997 21.4247 93.201C21.4247 93.6023 21.3174 93.971 21.1027 94.307C20.8974 94.6337 20.6127 94.895 20.2487 95.091C19.8847 95.2777 19.4787 95.371 19.0307 95.371ZM17.6027 100.341L21.5647 95.805L25.1487 91.059L26.1427 91.955L22.3207 96.379L18.5967 101.251L17.6027 100.341ZM19.0307 94.279C19.264 94.279 19.46 94.1763 19.6187 93.971C19.7867 93.7563 19.8707 93.4997 19.8707 93.201C19.8707 92.9117 19.7867 92.6643 19.6187 92.459C19.4507 92.2443 19.2547 92.137 19.0307 92.137C18.7974 92.137 18.5967 92.2443 18.4287 92.459C18.27 92.6643 18.1907 92.9117 18.1907 93.201C18.1907 93.4997 18.2747 93.7563 18.4427 93.971C18.6107 94.1763 18.8067 94.279 19.0307 94.279ZM24.7147 101.265C24.2667 101.265 23.8607 101.172 23.4967 100.985C23.142 100.789 22.8574 100.528 22.6427 100.201C22.428 99.8743 22.3207 99.5103 22.3207 99.109C22.3207 98.7077 22.428 98.3437 22.6427 98.017C22.8574 97.681 23.142 97.4197 23.4967 97.233C23.8607 97.037 24.2667 96.939 24.7147 96.939C25.1627 96.939 25.5687 97.037 25.9327 97.233C26.2967 97.4197 26.5814 97.681 26.7867 98.017C27.0014 98.3437 27.1087 98.7077 27.1087 99.109C27.1087 99.5103 27.0014 99.8743 26.7867 100.201C26.5814 100.528 26.2967 100.789 25.9327 100.985C25.5687 101.172 25.1627 101.265 24.7147 101.265ZM24.7147 100.173C24.948 100.173 25.1487 100.07 25.3167 99.865C25.4847 99.6503 25.5687 99.3983 25.5687 99.109C25.5687 98.8103 25.4847 98.5583 25.3167 98.353C25.1487 98.1383 24.948 98.031 24.7147 98.031C24.4814 98.031 24.2807 98.1383 24.1127 98.353C23.954 98.5583 23.8747 98.8103 23.8747 99.109C23.8747 99.3983 23.9587 99.6503 24.1267 99.865C24.2947 100.07 24.4907 100.173 24.7147 100.173Z" fill="black"/>
<path d="M313.24 92.8025C313.24 93.4372 313.072 93.9925 312.736 94.4685C312.4 94.9352 311.952 95.2992 311.392 95.5605C310.842 95.8125 310.23 95.9385 309.558 95.9385C308.896 95.9385 308.284 95.8078 307.724 95.5465C307.174 95.2758 306.73 94.8978 306.394 94.4125C306.058 93.9272 305.89 93.3625 305.89 92.7185C305.89 92.3638 305.96 92.0465 306.1 91.7665C306.24 91.4772 306.418 91.2298 306.632 91.0245C306.847 90.8098 307.062 90.6372 307.276 90.5065C306.968 90.3385 306.707 90.0912 306.492 89.7645C306.287 89.4378 306.184 89.0925 306.184 88.7285C306.184 88.2618 306.287 87.8512 306.492 87.4965C306.698 87.1418 306.968 86.8432 307.304 86.6005C307.64 86.3578 308.004 86.1758 308.396 86.0545C308.788 85.9332 309.176 85.8725 309.558 85.8725C309.941 85.8725 310.328 85.9332 310.72 86.0545C311.122 86.1758 311.49 86.3578 311.826 86.6005C312.162 86.8338 312.433 87.1278 312.638 87.4825C312.853 87.8278 312.96 88.2338 312.96 88.7005C312.96 89.0645 312.848 89.4192 312.624 89.7645C312.41 90.1005 312.148 90.3478 311.84 90.5065C312.186 90.7118 312.503 91.0105 312.792 91.4025C313.091 91.7852 313.24 92.2518 313.24 92.8025ZM308.452 88.7705C308.452 89.0972 308.569 89.3445 308.802 89.5125C309.045 89.6712 309.297 89.7505 309.558 89.7505C309.82 89.7505 310.072 89.6712 310.314 89.5125C310.557 89.3445 310.678 89.0972 310.678 88.7705C310.678 88.4998 310.566 88.2805 310.342 88.1125C310.128 87.9352 309.866 87.8465 309.558 87.8465C309.25 87.8465 308.989 87.9352 308.774 88.1125C308.56 88.2898 308.452 88.5092 308.452 88.7705ZM310.972 92.6625C310.972 92.2705 310.828 91.9672 310.538 91.7525C310.258 91.5378 309.932 91.4305 309.558 91.4305C309.176 91.4305 308.844 91.5425 308.564 91.7665C308.294 91.9905 308.158 92.2938 308.158 92.6765C308.158 93.0405 308.298 93.3392 308.578 93.5725C308.868 93.7965 309.199 93.9085 309.572 93.9085C309.946 93.9085 310.272 93.7918 310.552 93.5585C310.832 93.3158 310.972 93.0172 310.972 92.6625ZM321.492 91.7105C321.492 92.5318 321.334 93.2645 321.016 93.9085C320.699 94.5432 320.265 95.0425 319.714 95.4065C319.164 95.7705 318.538 95.9525 317.838 95.9525C317.138 95.9525 316.513 95.7705 315.962 95.4065C315.412 95.0425 314.978 94.5432 314.66 93.9085C314.343 93.2645 314.184 92.5318 314.184 91.7105C314.184 90.8892 314.343 90.1612 314.66 89.5265C314.978 88.8825 315.412 88.3785 315.962 88.0145C316.513 87.6412 317.138 87.4545 317.838 87.4545C318.538 87.4545 319.164 87.6412 319.714 88.0145C320.265 88.3785 320.699 88.8825 321.016 89.5265C321.334 90.1612 321.492 90.8892 321.492 91.7105ZM319.238 91.7105C319.238 91.0572 319.103 90.5298 318.832 90.1285C318.571 89.7178 318.24 89.5125 317.838 89.5125C317.418 89.5125 317.078 89.7178 316.816 90.1285C316.555 90.5298 316.424 91.0572 316.424 91.7105C316.424 92.3638 316.555 92.8912 316.816 93.2925C317.078 93.6938 317.418 93.8945 317.838 93.8945C318.24 93.8945 318.571 93.6938 318.832 93.2925C319.103 92.8912 319.238 92.3638 319.238 91.7105ZM324.73 90.0585C324.282 90.0585 323.876 89.9652 323.512 89.7785C323.157 89.5825 322.873 89.3212 322.658 88.9945C322.443 88.6585 322.336 88.2898 322.336 87.8885C322.336 87.4872 322.443 87.1232 322.658 86.7965C322.873 86.4698 323.157 86.2132 323.512 86.0265C323.876 85.8305 324.282 85.7325 324.73 85.7325C325.178 85.7325 325.584 85.8305 325.948 86.0265C326.312 86.2132 326.597 86.4698 326.802 86.7965C327.017 87.1232 327.124 87.4872 327.124 87.8885C327.124 88.2898 327.017 88.6585 326.802 88.9945C326.597 89.3212 326.312 89.5825 325.948 89.7785C325.584 89.9652 325.178 90.0585 324.73 90.0585ZM323.302 95.0285L327.264 90.4925L330.848 85.7465L331.842 86.6425L328.02 91.0665L324.296 95.9385L323.302 95.0285ZM324.73 88.9665C324.963 88.9665 325.159 88.8638 325.318 88.6585C325.486 88.4438 325.57 88.1872 325.57 87.8885C325.57 87.5992 325.486 87.3518 325.318 87.1465C325.15 86.9318 324.954 86.8245 324.73 86.8245C324.497 86.8245 324.296 86.9318 324.128 87.1465C323.969 87.3518 323.89 87.5992 323.89 87.8885C323.89 88.1872 323.974 88.4438 324.142 88.6585C324.31 88.8638 324.506 88.9665 324.73 88.9665ZM330.414 95.9525C329.966 95.9525 329.56 95.8592 329.196 95.6725C328.841 95.4765 328.557 95.2152 328.342 94.8885C328.127 94.5618 328.02 94.1978 328.02 93.7965C328.02 93.3952 328.127 93.0312 328.342 92.7045C328.557 92.3685 328.841 92.1072 329.196 91.9205C329.56 91.7245 329.966 91.6265 330.414 91.6265C330.862 91.6265 331.268 91.7245 331.632 91.9205C331.996 92.1072 332.281 92.3685 332.486 92.7045C332.701 93.0312 332.808 93.3952 332.808 93.7965C332.808 94.1978 332.701 94.5618 332.486 94.8885C332.281 95.2152 331.996 95.4765 331.632 95.6725C331.268 95.8592 330.862 95.9525 330.414 95.9525ZM330.414 94.8605C330.647 94.8605 330.848 94.7578 331.016 94.5525C331.184 94.3378 331.268 94.0858 331.268 93.7965C331.268 93.4978 331.184 93.2458 331.016 93.0405C330.848 92.8258 330.647 92.7185 330.414 92.7185C330.181 92.7185 329.98 92.8258 329.812 93.0405C329.653 93.2458 329.574 93.4978 329.574 93.7965C329.574 94.0858 329.658 94.3378 329.826 94.5525C329.994 94.7578 330.19 94.8605 330.414 94.8605Z" fill="black"/>
<line x1="295.215" y1="2.125" x2="295.215" y2="185.938" stroke="black"/>
<line x1="287.294" y1="1.625" x2="295.775" y2="1.625" stroke="black"/>
<line x1="287.294" y1="186.5" x2="295.775" y2="186.5" stroke="black"/>
</svg>
