<svg width="20" height="20" viewBox="0 0 20 20" fill="none" xmlns="http://www.w3.org/2000/svg">
<path d="M11.7007 3.40256H11.1148V11.514L6.30524 18.0336L6.77633 18.3815C8.21 19.4403 9.91281 20 11.7007 20C16.2766 20 19.9994 16.2772 19.9994 11.7013C19.9994 7.12537 16.2766 3.40256 11.7007 3.40256Z" fill="#696969"/>
<path d="M2.39375 4.63635C1.90282 5.20557 1.43032 5.77698 1.06059 6.43596C0.544261 7.35627 0.206253 8.37428 0.0694175 9.42065C-0.224528 11.6686 0.432504 13.981 1.86461 15.7379C2.43625 16.4391 3.12235 16.9917 3.84532 17.5254L9.09188 10.4134L2.39375 4.63635Z" fill="#696969"/>
<path d="M9.35134 0C8.14536 0 6.99794 0.118359 5.88607 0.628008C4.77384 1.13781 3.93478 1.93004 3.147 2.84363L9.35134 8.19469V0Z" fill="#696969"/>
</svg>
