<svg width="15" height="15" viewBox="0 0 15 15" fill="none" xmlns="http://www.w3.org/2000/svg">
<g clip-path="url(#clip0)">
<path d="M7.50001 0.375C3.36451 0.375 4.89782e-06 3.403 4.89782e-06 7.125C4.89782e-06 8.426 0.411505 9.68625 1.19201 10.776C1.04426 12.4103 0.648255 13.6235 0.0732549 14.1982C-0.0027451 14.2742 -0.0217451 14.3905 0.0262549 14.4865C0.0687549 14.5722 0.156255 14.625 0.250005 14.625C0.261505 14.625 0.273005 14.6243 0.284755 14.6225C0.386005 14.6083 2.73801 14.2698 4.43926 13.2878C5.40526 13.6775 6.43426 13.875 7.50001 13.875C11.6355 13.875 15 10.847 15 7.125C15 3.403 11.6355 0.375 7.50001 0.375ZM4.00001 8.125C3.44851 8.125 3.00001 7.6765 3.00001 7.125C3.00001 6.5735 3.44851 6.125 4.00001 6.125C4.55151 6.125 5.00001 6.5735 5.00001 7.125C5.00001 7.6765 4.55151 8.125 4.00001 8.125ZM7.50001 8.125C6.94851 8.125 6.50001 7.6765 6.50001 7.125C6.50001 6.5735 6.94851 6.125 7.50001 6.125C8.05151 6.125 8.50001 6.5735 8.50001 7.125C8.50001 7.6765 8.05151 8.125 7.50001 8.125ZM11 8.125C10.4485 8.125 10 7.6765 10 7.125C10 6.5735 10.4485 6.125 11 6.125C11.5515 6.125 12 6.5735 12 7.125C12 7.6765 11.5515 8.125 11 8.125Z" fill="black"/>
</g>
<defs>
<clipPath id="clip0">
<rect width="15" height="15" fill="white"/>
</clipPath>
</defs>
</svg>
