<svg width="20" height="20" viewBox="0 0 20 20" fill="none" xmlns="http://www.w3.org/2000/svg">
<path d="M1.25 17.0703V2.34375H0.585938C0.262344 2.34375 0 2.60609 0 2.92969V19.4141C0 19.7377 0.262344 20 0.585938 20H13.8672C14.1908 20 14.4531 19.7377 14.4531 19.4141V18.8281H3.00781C2.03855 18.8281 1.25 18.0396 1.25 17.0703Z" fill="#696969"/>
<path d="M5.9375 12.9688H7.10938V14.1406H5.9375V12.9688Z" fill="#696969"/>
<path d="M5.9375 3.59375H7.10938V4.76562H5.9375V3.59375Z" fill="#696969"/>
<path d="M5.9375 8.28125H7.10938V9.45312H5.9375V8.28125Z" fill="#696969"/>
<path d="M19.6198 10.0064L16.7878 8.94434C16.6551 8.89461 16.5089 8.89461 16.3763 8.94434L13.5443 10.0064C13.3155 10.0921 13.1641 10.3107 13.1641 10.555V13.3743C13.1641 15.4379 14.4441 17.285 16.3763 18.0096C16.5089 18.0593 16.6551 18.0593 16.7878 18.0096C18.72 17.285 20 15.4379 20 13.3743V10.555C20 10.3107 19.8485 10.0921 19.6198 10.0064ZM18.2393 12.672L16.582 14.3293C16.3532 14.5581 15.9822 14.5581 15.7534 14.3293L14.9247 13.5007C14.6959 13.2718 14.6959 12.9009 14.9247 12.672C15.1536 12.4432 15.5245 12.4432 15.7534 12.672L16.1677 13.0864L17.4107 11.8434C17.6395 11.6146 18.0105 11.6146 18.2393 11.8434C18.4681 12.0722 18.4681 12.4432 18.2393 12.672Z" fill="#696969"/>
<path d="M3.00781 17.6562H13.7385C13.0923 16.9956 12.6013 16.1942 12.3069 15.3125H10.0391C9.71547 15.3125 9.45312 15.0502 9.45312 14.7266C9.45312 14.403 9.71547 14.1406 10.0391 14.1406H12.0404C12.0087 13.8887 11.9922 13.6329 11.9922 13.3743V12.9688H10.0391C9.71547 12.9688 9.45312 12.7064 9.45312 12.3828C9.45312 12.0592 9.71547 11.7969 10.0391 11.7969H11.9922V10.625H10.0391C9.71547 10.625 9.45312 10.3627 9.45312 10.0391C9.45312 9.71547 9.71547 9.45312 10.0391 9.45312H12.3805C12.5738 9.21285 12.8308 9.02234 13.1328 8.9091L15.9648 7.84711C16.2571 7.73754 16.5712 7.70875 16.875 7.76012V0.585938C16.875 0.262344 16.6127 0 16.2891 0H3.00781C2.68422 0 2.42188 0.262344 2.42188 0.585938V17.0703C2.42188 17.3939 2.68422 17.6562 3.00781 17.6562ZM10.0391 2.42188H13.9453C14.2689 2.42188 14.5312 2.68422 14.5312 3.00781C14.5312 3.33141 14.2689 3.59375 13.9453 3.59375H10.0391C9.71547 3.59375 9.45312 3.33141 9.45312 3.00781C9.45312 2.68422 9.71547 2.42188 10.0391 2.42188ZM10.0391 4.76562H12.3828C12.7064 4.76562 12.9688 5.02797 12.9688 5.35156C12.9688 5.67516 12.7064 5.9375 12.3828 5.9375H10.0391C9.71547 5.9375 9.45312 5.67516 9.45312 5.35156C9.45312 5.02797 9.71547 4.76562 10.0391 4.76562ZM10.0391 7.10938H13.3594C13.683 7.10938 13.9453 7.37172 13.9453 7.69531C13.9453 8.01891 13.683 8.28125 13.3594 8.28125H10.0391C9.71547 8.28125 9.45312 8.01891 9.45312 7.69531C9.45312 7.37172 9.71547 7.10938 10.0391 7.10938ZM4.76562 3.00781C4.76562 2.68422 5.02797 2.42188 5.35156 2.42188H7.69531C8.01891 2.42188 8.28125 2.68422 8.28125 3.00781V5.35156C8.28125 5.67516 8.01891 5.9375 7.69531 5.9375H5.35156C5.02797 5.9375 4.76562 5.67516 4.76562 5.35156V3.00781ZM4.76562 7.69531C4.76562 7.37172 5.02797 7.10938 5.35156 7.10938H7.69531C8.01891 7.10938 8.28125 7.37172 8.28125 7.69531V10.0391C8.28125 10.3627 8.01891 10.625 7.69531 10.625H5.35156C5.02797 10.625 4.76562 10.3627 4.76562 10.0391V7.69531ZM4.76562 12.3828C4.76562 12.0592 5.02797 11.7969 5.35156 11.7969H7.69531C8.01891 11.7969 8.28125 12.0592 8.28125 12.3828V14.7266C8.28125 15.0502 8.01891 15.3125 7.69531 15.3125H5.35156C5.02797 15.3125 4.76562 15.0502 4.76562 14.7266V12.3828Z" fill="#696969"/>
</svg>
