<svg width="20" height="20" viewBox="0 0 20 20" fill="none" xmlns="http://www.w3.org/2000/svg">
<g clip-path="url(#clip0)">
<path d="M10 0C4.48608 0 0 4.48608 0 10C0 15.514 4.48608 20 10 20C15.514 20 20 15.514 20 10C20 4.48608 15.5139 0 10 0ZM10.6505 15.9333C10.1754 16.0125 9.23006 16.2103 8.75001 16.25C8.34366 16.2837 7.96021 16.0511 7.72646 15.7172C7.4921 15.3833 7.43594 14.9561 7.57508 14.5728L9.46533 9.37503H7.49999C7.49832 8.29197 8.3107 7.49561 9.34974 7.18998C9.84558 7.04409 10.7694 6.84445 11.25 6.87505C11.5379 6.89336 12.0398 7.074 12.2735 7.4079C12.5079 7.74176 12.5641 8.16901 12.4249 8.55231L10.5347 13.7501H12.4994C12.4998 14.8319 11.7177 15.7554 10.6505 15.9333ZM11.25 6.25002C10.5596 6.25002 9.99998 5.69031 9.99998 5.00001C9.99998 4.30963 10.5596 3.75 11.25 3.75C11.9404 3.75 12.5 4.30963 12.5 5.00001C12.5 5.69035 11.9404 6.25002 11.25 6.25002Z" fill="#7F7F7F"/>
</g>
<defs>
<clipPath id="clip0">
<rect width="20" height="20" fill="white"/>
</clipPath>
</defs>
</svg>
