<svg width="20" height="20" viewBox="0 0 20 20" fill="none" xmlns="http://www.w3.org/2000/svg">
<path d="M14.7075 1.48566H18.4183C18.5835 1.67758 18.8278 1.79945 19.1003 1.79945C19.5964 1.79945 20 1.39586 20 0.899727C20 0.403633 19.5964 0 19.1003 0C18.8278 0 18.5835 0.121875 18.4183 0.313789H10.8325C10.7344 0.127344 10.5391 0 10.3138 0H9.68621C9.4609 0 9.26559 0.127344 9.16754 0.313789H1.58168C1.41656 0.121875 1.17219 0 0.899727 0C0.612383 0 0.35625 0.135586 0.191445 0.345937C0.0716797 0.49875 0 0.690938 0 0.899727C0 1.39586 0.403633 1.79945 0.899727 1.79945C1.17219 1.79945 1.41652 1.67758 1.58168 1.48566H5.29254C4.4334 1.94523 3.63734 2.5343 2.92891 3.24277C1.0402 5.13145 0 7.64266 0 10.3138C0 10.6374 0.262344 10.8997 0.585938 10.8997C0.909531 10.8997 1.17188 10.6374 1.17188 10.3138C1.17188 5.71922 4.70016 1.93387 9.18949 1.52324C9.29297 1.68891 9.47648 1.79945 9.68621 1.79945H10.3138C10.5235 1.79945 10.707 1.68891 10.8105 1.52324C15.2998 1.93387 18.8281 5.71922 18.8281 10.3138C18.8281 10.6374 19.0905 10.8997 19.4141 10.8997C19.7377 10.8997 20 10.6374 20 10.3138C20 7.64266 18.9598 5.13145 17.0711 3.24273C16.3627 2.5343 15.5666 1.94523 14.7075 1.48566Z" fill="#696969"/>
<path d="M16.1229 12.4301L10.5859 4.78918V14.6527C10.7779 14.8178 10.8997 15.0622 10.8997 15.3346C10.8997 15.8307 10.4961 16.2343 10 16.2343C9.50391 16.2343 9.10028 15.8307 9.10028 15.3346C9.10028 15.0622 9.22215 14.8178 9.41406 14.6527V4.78918L3.87707 12.4301C3.76719 12.5818 3.73637 12.7768 3.7943 12.955L5.9518 19.5951C6.03024 19.8366 6.25524 20 6.50907 20H13.4909C13.7448 20 13.9697 19.8365 14.0482 19.5951L16.2057 12.955C16.2636 12.7768 16.2328 12.5818 16.1229 12.4301Z" fill="#696969"/>
</svg>
