<svg width="20" height="20" viewBox="0 0 20 20" fill="none" xmlns="http://www.w3.org/2000/svg">
<path d="M14.725 9.12811C14.7583 9.12811 14.7914 9.12857 14.8247 9.12918L14.8332 9.12933C15.0198 9.13269 15.2049 9.14474 15.3882 9.16473V2.35977C15.3882 1.05865 14.3295 0 13.0284 0H2.78961C1.48834 0 0.429688 1.05865 0.429688 2.35977V15.9329C0.429688 17.2342 1.48834 18.2928 2.78946 18.2928H9.6254C9.03549 17.3448 8.72604 16.2621 8.72604 15.1305C8.72604 11.8207 11.4171 9.12811 14.725 9.12811ZM8.89282 3.853H12.3898C12.7135 3.853 12.9758 4.1153 12.9758 4.43893C12.9758 4.76257 12.7135 5.02487 12.3898 5.02487H8.89282C8.56934 5.02487 8.30688 4.76257 8.30688 4.43893C8.30688 4.1153 8.56934 3.853 8.89282 3.853ZM8.89282 6.1969H12.3898C12.7135 6.1969 12.9758 6.4592 12.9758 6.78284C12.9758 7.10648 12.7135 7.36877 12.3898 7.36877H8.89282C8.56934 7.36877 8.30688 7.10648 8.30688 6.78284C8.30688 6.4592 8.56934 6.1969 8.89282 6.1969ZM6.92505 14.4397H3.42804C3.1044 14.4397 2.8421 14.1774 2.8421 13.8538C2.8421 13.5303 3.1044 13.2678 3.42804 13.2678H6.92505C7.24854 13.2678 7.51099 13.5303 7.51099 13.8538C7.51099 14.1774 7.24854 14.4397 6.92505 14.4397ZM6.92505 12.0566H3.42804C3.1044 12.0566 2.8421 11.7943 2.8421 11.4706C2.8421 11.147 3.1044 10.8847 3.42804 10.8847H6.92505C7.24854 10.8847 7.51099 11.147 7.51099 11.4706C7.51099 11.7943 7.24854 12.0566 6.92505 12.0566ZM6.92505 9.71268H3.42804C3.1044 9.71268 2.8421 9.45038 2.8421 9.12674C2.8421 8.8031 3.1044 8.5408 3.42804 8.5408H6.92505C7.24854 8.5408 7.51099 8.8031 7.51099 9.12674C7.51099 9.45038 7.24854 9.71268 6.92505 9.71268ZM6.92505 7.36877H3.42804C3.1044 7.36877 2.8421 7.10648 2.8421 6.78284C2.8421 6.4592 3.1044 6.1969 3.42804 6.1969H6.92505C7.24854 6.1969 7.51099 6.4592 7.51099 6.78284C7.51099 7.10648 7.24854 7.36877 6.92505 7.36877ZM6.92505 5.02487H3.42804C3.1044 5.02487 2.8421 4.76257 2.8421 4.43893C2.8421 4.1153 3.1044 3.853 3.42804 3.853H6.92505C7.24854 3.853 7.51099 4.1153 7.51099 4.43893C7.51099 4.76257 7.24854 5.02487 6.92505 5.02487ZM8.30688 9.12674C8.30688 8.8031 8.56934 8.5408 8.89282 8.5408H10.5771C10.9007 8.5408 11.163 8.8031 11.163 9.12674C11.163 9.45038 10.9007 9.71268 10.5771 9.71268H8.89282C8.56934 9.71268 8.30688 9.45038 8.30688 9.12674Z" fill="#696969"/>
<path d="M18.1947 11.7165C17.2954 10.8012 16.0942 10.2846 14.8126 10.262L14.8042 10.2618C14.7778 10.2614 14.7514 10.2609 14.725 10.2609C12.0418 10.2609 9.85886 12.4454 9.85886 15.1305C9.85886 16.1969 10.1973 17.2096 10.8374 18.0594C11.7665 19.2928 13.1834 20 14.725 20C17.4083 20 19.5912 17.8156 19.5912 15.1305C19.5912 13.8451 19.0953 12.6326 18.1947 11.7165ZM16.8042 14.3388L14.946 16.6553C14.8305 16.7992 14.6605 16.8747 14.4885 16.8747C14.369 16.8747 14.2488 16.8382 14.1451 16.7632L12.7591 15.759C12.4971 15.5692 12.4385 15.2028 12.6285 14.9406C12.8183 14.6786 13.1847 14.6201 13.4467 14.81L14.381 15.4869L15.8902 13.6055C16.0927 13.3531 16.4613 13.3127 16.7139 13.5152C16.9662 13.7177 17.0067 14.0865 16.8042 14.3388Z" fill="#696969"/>
</svg>
